<svg xmlns="http://www.w3.org/2000/svg" viewBox="0 0 83.752 83.758">
  <g fill="#ffffff">
    <path d="M54.439 83.758H29.313A29.346 29.346 0 010 54.445a1.4 1.4 0 011.4-1.4h80.96a1.4 1.4 0 011.4 1.4 29.347 29.347 0 01-29.321 29.313zM2.828 55.841A26.555 26.555 0 0029.313 80.97h25.126a26.555 26.555 0 0026.485-25.126zM54.439 41.882H30.712a1.4 1.4 0 01-1.4-1.4v-20.7a5.785 5.785 0 015.232-5.815c.155-.008.257-.011.357-.011a5.563 5.563 0 012.786.745v-1.9a5.785 5.785 0 015.23-5.815c.155-.008.258-.011.359-.011a5.55 5.55 0 012.786.751V5.591c0-.1 0-.2.007-.3A5.579 5.579 0 0151.945.009a5.826 5.826 0 014.974 3.892l1.717-1.742c.172-.172.343-.327.521-.473a7.338 7.338 0 0110.317 1 7.475 7.475 0 01-.617 10.01l-1.58 1.58a5.8 5.8 0 013.907 4.929c.01.155.011.257.011.359a5.584 5.584 0 01-4.958 5.543A5.549 5.549 0 0167 28.231a5.777 5.777 0 01-5.843 5.286h-1.886a5.579 5.579 0 01-4.832 8.372zm-22.334-2.79h22.334a2.792 2.792 0 000-5.583 1.4 1.4 0 110-2.792h6.742a2.975 2.975 0 003.035-2.7 2.786 2.786 0 00-2.644-2.882h-.153a1.4 1.4 0 110-2.792h4.193a2.788 2.788 0 002.793-2.786v-.153a2.975 2.975 0 00-2.956-2.644h-1.237a1.4 1.4 0 01-.987-2.383l3.671-3.671a4.688 4.688 0 00.409-6.272 4.539 4.539 0 00-6.369-.6c-.11.091-.216.187-.32.289l-3.787 3.843a1.4 1.4 0 01-2.39-.978V5.829a2.989 2.989 0 00-2.7-3.037 2.767 2.767 0 00-2.881 2.644v7.134a1.4 1.4 0 01-1.4 1.394 1.4 1.4 0 01-1.395-1.4v-.009a2.8 2.8 0 00-2.789-2.79h-.151a2.977 2.977 0 00-2.644 3.007v6.766a1.4 1.4 0 01-1.4 1.395 1.4 1.4 0 01-1.394-1.4v-.01a2.794 2.794 0 00-2.788-2.788h-.152a2.977 2.977 0 00-2.644 3.007v19.33z"/>
    <path d="M21.349 47.871L60.43291312 8.78708688l1.97424213 1.97424214-39.08391312 39.08391311z"/>
    <path d="M51.644 11.181h2.792v6.979h-2.792zM43.269 18.16h2.792v8.375h-2.792zM34.894 25.126h2.792v9.771h-2.792z"/>
    <path d="M53.04 16.765h6.979v2.792H53.04zM44.665 25.126h8.375v2.792h-8.375zM36.29 33.501h9.771v2.792H36.29zM16.36 23.74a6.987 6.987 0 01-6.979-6.979v-.721l-1.175-.918a6.421 6.421 0 117.651-10.221l.483.347.5-.382c.1-.077.194-.141.286-.2a6.441 6.441 0 018.921 1.781l.006.009a6.425 6.425 0 01-1.481 8.619l-1.233.965v.715a6.986 6.986 0 01-6.979 6.985zM11.477 5.972a3.629 3.629 0 00-1.8 6.781 1.393 1.393 0 01.169.113l1.787 1.4a1.392 1.392 0 01.536 1.1v1.4a4.188 4.188 0 108.375 0v-1.4a1.4 1.4 0 01.536-1.1l1.787-1.4a3.61 3.61 0 00-4.195-5.874l-1.471 1.107a1.4 1.4 0 01-1.66.021l-1.4-1a1.5 1.5 0 01-.152-.127 3.613 3.613 0 00-2.512-1.021zM30.706 1.396h2.792v2.792h-2.792zM39.082 46.064h2.792v2.792h-2.792zM75.377 19.549v-2.792a2.792 2.792 0 100-5.583V8.382a5.5835 5.5835 0 010 11.167zM2.789 20.952h2.792v2.792H2.789zM0 15.369h2.792v2.792H0zM60.022 50.258H57.23a2.792 2.792 0 10-5.583 0h-2.792a5.5835 5.5835 0 1111.167 0zM16.75 43.278H5.583a5.5835 5.5835 0 010-11.167h.176a5.585 5.585 0 0110.815 0h.176a5.5835 5.5835 0 010 11.167zM5.583 34.904a2.792 2.792 0 000 5.583H16.75a2.792 2.792 0 100-5.583h-1.4a1.4 1.4 0 01-1.4-1.4 2.792 2.792 0 10-5.583 0 1.4 1.4 0 01-1.4 1.4z"/>
    <path d="M13.958 48.861H8.375a1.4 1.4 0 01-1.4-1.4v-5.579a1.4 1.4 0 011.4-1.4h5.583a1.4 1.4 0 011.4 1.4v5.583a1.4 1.4 0 01-1.4 1.396zM9.77 46.069h2.792v-2.792H9.771zM73.981 44.673a4.188 4.188 0 114.187-4.188 4.193 4.193 0 01-4.187 4.188zm0-5.582a1.4 1.4 0 101.4 1.4 1.4 1.4 0 00-1.4-1.4z"/>
    <path d="M73.986 50.26a9.771 9.771 0 119.771-9.771 9.783 9.783 0 01-9.771 9.771zm0-16.749a6.979 6.979 0 106.979 6.979 6.987 6.987 0 00-6.979-6.982z"/>
  </g>
</svg>
