<svg data-name="Group 220" xmlns="http://www.w3.org/2000/svg" viewBox="0 0 77.5 74.608">
  <g data-name="Group 219" fill="#00dbd0">
    <path data-name="Path 36514" d="M30.872 27.638a10.992 10.992 0 006.244 3.113v-5.937a4.778 4.778 0 113.148 0v5.937a11.041 11.041 0 006.243-18.752l-7.813-7.815-7.822 7.815a11.056 11.056 0 000 15.639z"/>
    <path data-name="Path 36515" d="M56.394 42.082a4.763 4.763 0 01-4.491-3.2h-5.939a11.041 11.041 0 0018.749 6.244l7.818-7.818-7.818-7.818a11.041 11.041 0 00-18.749 6.241h5.937a4.769 4.769 0 114.491 6.352z"/>
    <path data-name="Path 36516" d="M52.99 17.467a6.6595 6.6595 0 1013.319 0v-6.659H59.65a6.659 6.659 0 00-6.66 6.659z"/>
    <path data-name="Path 36517" d="M74.455 28.221l3.045-3.045-3.045-3.05a4.306 4.306 0 100 6.09z"/>
    <path data-name="Path 36518" d="M55.17 9.135a4.306 4.306 0 000-6.09L52.125 0 49.08 3.045a4.3062803 4.3062803 0 006.09 6.09z"/>
    <path data-name="Path 36519" d="M21.106 32.527a4.763 4.763 0 014.491 3.2h5.937a11.041 11.041 0 00-18.749-6.244l-7.818 7.818 7.818 7.818a11.041 11.041 0 0018.749-6.244h-5.937a4.769 4.769 0 11-4.491-6.351z"/>
    <path data-name="Path 36520" d="M17.851 24.127a6.6595 6.6595 0 000-13.319h-6.659v6.659a6.659 6.659 0 006.659 6.66z"/>
    <path data-name="Path 36521" d="M9.135 28.221a4.3062803 4.3062803 0 00-6.09-6.09L0 25.176l3.045 3.045a4.306 4.306 0 006.09 0z"/>
    <path data-name="Path 36522" d="M28.421 9.135a4.306 4.306 0 000-6.09L25.376 0l-3.041 3.045a4.3062803 4.3062803 0 006.09 6.09z"/>
    <path data-name="Path 36523" d="M46.507 46.972a10.991 10.991 0 00-6.244-3.111v5.937a4.778 4.778 0 11-3.148 0v-5.937a11.041 11.041 0 00-6.244 18.749l7.818 7.818 7.818-7.818a11.056 11.056 0 000-15.638z"/>
    <path data-name="Path 36524" d="M59.649 50.482a6.6595 6.6595 0 000 13.319h6.659v-6.659a6.66 6.66 0 00-6.659-6.66z"/>
    <path data-name="Path 36525" d="M68.365 46.389a4.3062803 4.3062803 0 006.09 6.09l3.045-3.045-3.045-3.045a4.306 4.306 0 00-6.09 0z"/>
    <path data-name="Path 36526" d="M49.08 65.473a4.306 4.306 0 000 6.09l3.045 3.045 3.045-3.045a4.3062803 4.3062803 0 10-6.09-6.09z"/>
    <path data-name="Path 36527" d="M24.511 57.141a6.6595 6.6595 0 10-13.319 0V63.8h6.659a6.659 6.659 0 006.66-6.659z"/>
    <path data-name="Path 36528" d="M3.045 46.389L0 49.433l3.045 3.045a4.306 4.306 0 100-6.09z"/>
    <path data-name="Path 36529" d="M22.335 65.473a4.306 4.306 0 000 6.09l3.045 3.045 3.045-3.045a4.3062803 4.3062803 0 10-6.09-6.09z"/>
  </g>
</svg>
