<svg xmlns="http://www.w3.org/2000/svg" viewBox="0 0 123.381 136.178">
  <g fill="#374b5c">
    <path d="M18.211 23.696a.99.99 0 01-.065-.536 1.039 1.039 0 01.216-.5 1.053 1.053 0 01.438-.333 1.009 1.009 0 01.534-.062 1.06 1.06 0 01.508.221 1.033 1.033 0 01.328.432 1.02 1.02 0 01.064.532 1.082 1.082 0 01-.654.835 1.011 1.011 0 01-.535.067 1.024 1.024 0 01-.5-.214 1.06 1.06 0 01-.334-.442zM22.984 16.209l.942 1 1.363-1.286.556.589-1.363 1.286.977 1.036 1.528-1.441.581.616-2.3 2.166-3.633-3.85 2.3-2.166.576.611zM32.085 8.659a2.415 2.415 0 011.483.684l-.926.61a1.451 1.451 0 00-.819-.268 1.515 1.515 0 00-.866.273 1.379 1.379 0 00-.624 1.381 2.087 2.087 0 00.347.867 2.063 2.063 0 00.655.654 1.381 1.381 0 001.516-.029 1.512 1.512 0 00.593-.686 1.447 1.447 0 00.076-.859l.927-.61a2.412 2.412 0 01.043 1.633 2.852 2.852 0 01-2.4 1.78 2.323 2.323 0 01-1.277-.3 3.227 3.227 0 01-1.537-2.335 2.329 2.329 0 01.221-1.291 2.863 2.863 0 012.585-1.5zM41.431 3.845a2.5 2.5 0 011.247.53 2.982 2.982 0 011.061 2.591 2.5 2.5 0 01-.515 1.256 2.8 2.8 0 01-2.49 1.02 2.492 2.492 0 01-1.248-.534 2.824 2.824 0 01-.854-1.165 2.793 2.793 0 01-.207-1.426 2.5 2.5 0 01.516-1.253 2.8 2.8 0 012.49-1.019zm-1.683 1.6a1.433 1.433 0 00-.281.767 2.215 2.215 0 00.7 1.7 1.438 1.438 0 00.739.35 1.695 1.695 0 001.513-.62 1.427 1.427 0 00.281-.767 2.219 2.219 0 00-.7-1.7 1.444 1.444 0 00-.739-.35 1.7 1.7 0 00-1.512.62zM59.18 3.946a2.3 2.3 0 01-.877 1.008 3.111 3.111 0 01-1.455.455l-1.875.155-.435-5.275 1.877-.155a3.184 3.184 0 011.509.2 2.263 2.263 0 011.029.841 3.09 3.09 0 01.229 2.768zm-1.217-.028a1.938 1.938 0 00-.208-2.517 1.833 1.833 0 00-1.357-.34l-.732.06.282 3.415.732-.061a1.837 1.837 0 001.283-.557zM65.981.93l-.12 1.366 1.867.164-.071.807-1.867-.164-.125 1.419 2.091.184-.074.845-3.145-.277.464-5.273 3.145.277-.075.837zM76.034 6.541a1.451 1.451 0 01-.717.382 2.081 2.081 0 01-.987-.04 2.515 2.515 0 01-.926-.434 1.688 1.688 0 01-.549-.71 1.578 1.578 0 01-.086-.889l1.088.279a.858.858 0 00.119.584.809.809 0 00.517.353.681.681 0 00.533-.046.617.617 0 00.284-.4.6.6 0 00-.037-.431 1.037 1.037 0 00-.284-.339q-.187-.148-.525-.367a5.858 5.858 0 01-.7-.517 1.5 1.5 0 01-.4-.587 1.342 1.342 0 01-.015-.832 1.3 1.3 0 01.742-.92 2.018 2.018 0 011.358-.059 2.063 2.063 0 011.2.724 1.527 1.527 0 01.28 1.186l-1.1-.282a.792.792 0 00-.117-.513.746.746 0 00-.471-.311.7.7 0 00-.495.032.623.623 0 00-.246.8 1.049 1.049 0 00.279.33 5.577 5.577 0 00.509.355 7.552 7.552 0 01.719.533 1.452 1.452 0 01.409.592 1.391 1.391 0 01.014.855 1.44 1.44 0 01-.396.672zM83.725 4.465l-2.042 4.884-.975-.408 2.041-4.884zM92.294 9.534a2.122 2.122 0 01.02 1.523l-.944-.583a1.256 1.256 0 00-.122-.75 1.5 1.5 0 00-.573-.605 1.554 1.554 0 00-.8-.247 1.414 1.414 0 00-.781.223 2.011 2.011 0 00-.646.676 1.787 1.787 0 00-.3 1.337 1.608 1.608 0 00.793 1.036 1.489 1.489 0 001.009.227 1.572 1.572 0 00.942-.52l-1.524-.941.4-.645 2.278 1.407-.536.867a2.485 2.485 0 01-.882.592 2.353 2.353 0 01-1.1.154 2.654 2.654 0 01-1.17-.41 2.712 2.712 0 01-.992-1.013 2.344 2.344 0 01-.284-1.295 3.156 3.156 0 011.469-2.379 2.383 2.383 0 011.284-.331 2.672 2.672 0 011.348.427 2.6 2.6 0 011.111 1.25zM97.709 20.172l-.778-.715.685-4.253-2.432 2.652-.779-.714 3.577-3.9.779.714-.706 4.276 2.452-2.674.778.714zM103.611 22.261a1 1 0 01.536.065 1.084 1.084 0 01.654.835 1.015 1.015 0 01-.067.534 1.081 1.081 0 01-.336.44 1.041 1.041 0 01-.5.214 1.027 1.027 0 01-.532-.065 1.042 1.042 0 01-.437-.333 1.053 1.053 0 01-.217-.5 1.031 1.031 0 01.39-.967 1.064 1.064 0 01.509-.223z"/>
  </g>
  <path d="M70.476 41.758a186.691 186.691 0 00-3.017-19.147.7.7 0 00-.459-.524.7.7 0 00-.684.128 116.578 116.578 0 00-11.913 11.088 39.361 39.361 0 00-8.431 14.027 29.668 29.668 0 00-1.313 6.783 21.852 21.852 0 002.315 12.154 14.81 14.81 0 008.515 7.137 56.044 56.044 0 002.971 9.733.7.7 0 00.651.436.693.693 0 00.266-.052.7.7 0 00.385-.917 54.627 54.627 0 01-2.686-8.564c5.559-1.9 10.132-6.96 12.257-13.606 2.009-6.29 1.705-12.97 1.143-18.676zm-14.77 17.526c4.649-3.905 9.26-7.964 13.737-12.077a48.038 48.038 0 01-.122 5.947c-4.617 2.487-9.2 5.154-13.653 7.941.004-.604.015-1.208.038-1.811zm13.65-13.9c-4.409 4.074-8.961 8.094-13.554 11.977a55.365 55.365 0 013.123-14.784 44.633 44.633 0 018.863-10.425c.56 3.449.986 6.656 1.291 9.748.109 1.122.203 2.291.277 3.477zm-1.838-14.841a41.9 41.9 0 00-8.578 9.479 67.95 67.95 0 011.541-10.843c1.909-1.764 3.878-3.46 5.833-5.118.456 2.272.853 4.416 1.204 6.479zm-12.068 3.7c1.032-1.157 2.125-2.265 3.24-3.353a59.91 59.91 0 00-1.2 11.525 55.71 55.71 0 00-1.962 6.921 28.845 28.845 0 01-2.5-11.419.676.676 0 00-.21-.476q1.217-1.609 2.633-3.202zm-3.777 4.811a30.234 30.234 0 003.228 12.237.681.681 0 00.214.23 58.026 58.026 0 00-.853 9.757 62.934 62.934 0 01-7.974-9.055 28.214 28.214 0 011.022-4.463 33.657 33.657 0 014.364-8.71zm-3.469 26.542a20.453 20.453 0 01-2.145-11.357 64.337 64.337 0 008.225 8.988 58.193 58.193 0 00.9 8.595 13.568 13.568 0 01-6.979-6.231zm9.108 6.87a.691.691 0 00-.258-.1c-.121-.022-.238-.064-.359-.09a56.785 56.785 0 01-1-8.927.682.682 0 00-.029-.706.7.7 0 00.351-.105c4.266-2.683 8.668-5.251 13.1-7.662a30.164 30.164 0 01-1.126 5.138c-1.899 5.934-5.852 10.52-10.678 12.448z" fill="#374b5c"/>
  <g fill="#374b5c">
    <path d="M1.057 59.834v1.372h1.874v.81H1.057v1.425h2.1v.847H0v-5.294h3.157v.84zM11.718 63.59a1.451 1.451 0 01-.6.547 2.072 2.072 0 01-.967.207 2.52 2.52 0 01-1-.191 1.707 1.707 0 01-.708-.551 1.593 1.593 0 01-.3-.84h1.125a.858.858 0 00.259.536.808.808 0 00.588.214.686.686 0 00.506-.176.614.614 0 00.176-.454.6.6 0 00-.142-.409 1.049 1.049 0 00-.359-.258c-.146-.065-.345-.14-.6-.225a5.967 5.967 0 01-.81-.326 1.491 1.491 0 01-.536-.468 1.344 1.344 0 01-.221-.8 1.306 1.306 0 01.491-1.076 2.019 2.019 0 011.3-.394 2.059 2.059 0 011.338.4 1.53 1.53 0 01.567 1.079h-1.151a.8.8 0 00-.241-.468.745.745 0 00-.531-.184.705.705 0 00-.473.154.626.626 0 00-.041.832 1.06 1.06 0 00.353.251 5.545 5.545 0 00.581.217 7.835 7.835 0 01.828.338 1.466 1.466 0 01.543.472 1.392 1.392 0 01.225.825 1.433 1.433 0 01-.2.748zM20.647 58.994v.84h-1.461v4.453h-1.057v-4.453h-1.452v-.84zM26.458 63.185v1.1h-1.14v-1.1z"/>
  </g>
  <g fill="#374b5c">
    <path d="M95.536 60.53a.839.839 0 00-.169-.555.652.652 0 00-.529-.2q-.742 0-.787 1.012h-1.023a1.975 1.975 0 01.569-1.421 1.885 1.885 0 011.327-.483 1.737 1.737 0 011.257.424 1.5 1.5 0 01.439 1.129 2.192 2.192 0 01-.326 1.113 4.531 4.531 0 01-.828 1.027 6.506 6.506 0 01-1.057.806h2.317v.862h-3.727v-.787q2.536-1.764 2.537-2.927zM101.661 61.592q0-2.684 2.024-2.684a1.707 1.707 0 011.544.72 4.332 4.332 0 010 3.936 1.708 1.708 0 01-1.544.719q-2.024.003-2.024-2.691zm3 0a3.118 3.118 0 00-.2-1.248.912.912 0 00-1.559 0 4.045 4.045 0 000 2.5.912.912 0 001.559 0 3.141 3.141 0 00.199-1.252zM113.213 60.53a.838.838 0 00-.168-.555.652.652 0 00-.529-.2q-.742 0-.787 1.012h-1.026a1.975 1.975 0 01.569-1.421 1.886 1.886 0 011.327-.483 1.737 1.737 0 011.256.424 1.5 1.5 0 01.439 1.129 2.191 2.191 0 01-.326 1.113 4.528 4.528 0 01-.829 1.027 6.525 6.525 0 01-1.057.806h2.317v.862h-3.727v-.787q2.541-1.764 2.541-2.927zM119.339 61.592q0-2.684 2.024-2.684a1.708 1.708 0 011.544.72 4.33 4.33 0 010 3.936 1.709 1.709 0 01-1.544.719q-2.024.003-2.024-2.691zm3 0a3.129 3.129 0 00-.2-1.248.913.913 0 00-1.56 0 4.058 4.058 0 000 2.5.913.913 0 001.56 0 3.152 3.152 0 00.199-1.252z"/>
  </g>
  <g fill="#374b5c">
    <path d="M41.225 103.521h-1.057l-2.37-3.6v3.6h-1.057v-5.293h1.057l2.37 3.629v-3.629h1.057zM49.757 102.456h-2.121l-.375 1.065h-1.117l1.95-5.233h1.202l1.941 5.233H50.12zm-.284-.8l-.78-2.233-.779 2.233zM59.758 98.228v.84h-1.461v4.454H57.24v-4.454h-1.454v-.84zM65.711 98.228v3.1a1.379 1.379 0 00.273.934 1 1 0 00.792.311.99.99 0 00.783-.311 1.38 1.38 0 00.274-.934v-3.1h1.05v3.1a2.59 2.59 0 01-.274 1.241 1.771 1.771 0 01-.758.754 2.382 2.382 0 01-1.1.247 2.054 2.054 0 01-1.522-.57 2.264 2.264 0 01-.569-1.672v-3.1zM76.919 103.521l-1.238-2.062h-.464v2.062H74.16v-5.293h2.017a1.993 1.993 0 011.406.45 1.543 1.543 0 01.483 1.185 1.527 1.527 0 01-.333 1 1.652 1.652 0 01-.964.54l1.319 2.114zm-1.7-2.789h.87q.906 0 .907-.8a.789.789 0 00-.221-.6.956.956 0 00-.686-.214h-.87zM84.184 99.068v1.372h1.874v.81h-1.874v1.426h2.1v.847h-3.156V98.23h3.156v.84zM27.786 123.298v1.965h-1.057v-5.293h1.927a1.986 1.986 0 011.413.45 1.6 1.6 0 01.476 1.222 1.555 1.555 0 01-.492 1.206 1.993 1.993 0 01-1.4.45zm1.687-1.656a.811.811 0 00-.217-.608 1 1 0 00-.712-.209h-.758v1.626h.758q.928 0 .928-.809zM38.342 125.262l-1.237-2.062h-.465v2.062h-1.057v-5.293h2.018a1.988 1.988 0 011.405.45 1.541 1.541 0 01.483 1.185 1.524 1.524 0 01-.333 1 1.642 1.642 0 01-.964.54l1.32 2.114zm-1.7-2.789h.871c.6 0 .907-.267.907-.8a.791.791 0 00-.222-.6.953.953 0 00-.685-.214h-.871zM48.376 120.238a2.49 2.49 0 01.953.963 2.983 2.983 0 010 2.8 2.491 2.491 0 01-.953.967 2.8 2.8 0 01-2.691 0 2.5 2.5 0 01-.952-.967 2.984 2.984 0 010-2.8 2.5 2.5 0 01.952-.963 2.8 2.8 0 012.691 0zm-2.163.84a1.426 1.426 0 00-.55.6 2.222 2.222 0 000 1.837 1.434 1.434 0 00.55.6 1.7 1.7 0 001.635 0 1.449 1.449 0 00.551-.6 2.223 2.223 0 000-1.837 1.44 1.44 0 00-.551-.6 1.7 1.7 0 00-1.635 0zM59.147 123.995a2.292 2.292 0 01-.955.933 3.125 3.125 0 01-1.489.334h-1.881v-5.293h1.881a3.186 3.186 0 011.489.326 2.251 2.251 0 01.955.923 3.085 3.085 0 010 2.777zm-1.211-.127a1.938 1.938 0 000-2.527 1.834 1.834 0 00-1.324-.45h-.734v3.427h.734a1.834 1.834 0 001.324-.45zM65.639 119.969v3.1a1.378 1.378 0 00.273.934 1.151 1.151 0 001.575 0 1.382 1.382 0 00.273-.934v-3.1h1.049v3.1a2.581 2.581 0 01-.273 1.241 1.763 1.763 0 01-.758.754 2.372 2.372 0 01-1.1.247 2.056 2.056 0 01-1.522-.569 2.266 2.266 0 01-.569-1.673v-3.1zM78.122 120.43a2.415 2.415 0 01.862 1.387h-1.11a1.451 1.451 0 00-.536-.675 1.517 1.517 0 00-.874-.247 1.381 1.381 0 00-1.282.81 2.315 2.315 0 000 1.822 1.379 1.379 0 001.282.809 1.517 1.517 0 00.874-.247 1.447 1.447 0 00.536-.675h1.11a2.413 2.413 0 01-.862 1.387 2.855 2.855 0 01-2.98.169 2.322 2.322 0 01-.9-.956 3.23 3.23 0 010-2.8 2.327 2.327 0 01.9-.956 2.86 2.86 0 012.984.168zM87.725 119.969v.84h-1.461v4.453h-1.057v-4.45h-1.454v-.84zM96.091 124.562a1.453 1.453 0 01-.6.547 2.076 2.076 0 01-.967.206 2.5 2.5 0 01-1-.191 1.7 1.7 0 01-.709-.551 1.6 1.6 0 01-.3-.84h1.124a.866.866 0 00.259.536.809.809 0 00.589.214.682.682 0 00.506-.176.612.612 0 00.176-.453.6.6 0 00-.141-.409 1.045 1.045 0 00-.36-.258c-.146-.065-.345-.14-.6-.225a5.974 5.974 0 01-.81-.326 1.5 1.5 0 01-.535-.468 1.343 1.343 0 01-.221-.8 1.3 1.3 0 01.492-1.076 2.016 2.016 0 011.3-.394 2.059 2.059 0 011.338.4 1.529 1.529 0 01.566 1.079h-1.139a.794.794 0 00-.24-.468.744.744 0 00-.532-.184.7.7 0 00-.472.154.623.623 0 00-.041.832 1.049 1.049 0 00.352.251 5.723 5.723 0 00.581.217 7.709 7.709 0 01.828.337 1.47 1.47 0 01.544.473 1.4 1.4 0 01.224.825 1.428 1.428 0 01-.212.748zM23.263 134.168v1.962h-1.059v-5.29h1.928a1.985 1.985 0 011.412.45 1.6 1.6 0 01.476 1.222 1.553 1.553 0 01-.492 1.206 1.991 1.991 0 01-1.4.45zm1.687-1.656a.808.808 0 00-.218-.608 1.006 1.006 0 00-.712-.209h-.757v1.626h.757q.929 0 .93-.809zM34.284 135.068h-2.122l-.375 1.064H30.67l1.949-5.233h1.207l1.942 5.233h-1.117zm-.285-.8l-.78-2.234-.78 2.234zM44.72 131.297a2.416 2.416 0 01.862 1.387h-1.11a1.449 1.449 0 00-.536-.674 1.516 1.516 0 00-.874-.247 1.381 1.381 0 00-1.282.81 2.315 2.315 0 000 1.822 1.379 1.379 0 001.282.809 1.521 1.521 0 00.874-.246 1.451 1.451 0 00.536-.675h1.11a2.414 2.414 0 01-.862 1.387 2.855 2.855 0 01-2.981.169 2.328 2.328 0 01-.9-.956 3.231 3.231 0 010-2.8 2.339 2.339 0 01.9-.956 2.86 2.86 0 012.984.168zM52.778 133.441l2.242 2.691h-1.283l-1.956-2.422v2.42h-1.057v-5.29h1.057v2.376l1.965-2.376h1.274zM63.176 135.068h-2.125l-.375 1.064h-1.117l1.95-5.233h1.207l1.941 5.233H63.54zm-.285-.8l-.78-2.234-.779 2.234zM73.635 131.264a2.122 2.122 0 01.817 1.285h-1.109a1.263 1.263 0 00-.5-.573 1.486 1.486 0 00-.806-.214 1.551 1.551 0 00-.809.21 1.4 1.4 0 00-.547.6 2 2 0 00-.2.914 1.8 1.8 0 00.445 1.3 1.611 1.611 0 001.218.465 1.491 1.491 0 00.979-.338 1.569 1.569 0 00.529-.937H71.86v-.757h2.676v1.02a2.473 2.473 0 01-.438.967 2.349 2.349 0 01-.855.709 2.653 2.653 0 01-1.211.266 2.72 2.72 0 01-1.375-.341 2.354 2.354 0 01-.922-.952 3.163 3.163 0 010-2.8 2.373 2.373 0 01.919-.956 2.672 2.672 0 011.371-.345 2.6 2.6 0 011.61.477zM80.742 130.84v5.29h-1.057v-5.29zM90.533 136.13H89.48l-2.37-3.6v3.6h-1.06v-5.29h1.057l2.37 3.628v-3.628h1.057zM99.897 131.264a2.119 2.119 0 01.817 1.285h-1.109a1.257 1.257 0 00-.5-.573 1.487 1.487 0 00-.807-.214 1.551 1.551 0 00-.809.21 1.413 1.413 0 00-.547.6 2.012 2.012 0 00-.195.914 1.8 1.8 0 00.445 1.3 1.613 1.613 0 001.218.465 1.489 1.489 0 00.979-.338 1.568 1.568 0 00.529-.937h-1.792v-.757h2.676v1.02a2.479 2.479 0 01-.438.967 2.356 2.356 0 01-.855.709 2.651 2.651 0 01-1.211.266 2.724 2.724 0 01-1.375-.341 2.36 2.36 0 01-.923-.952 3.164 3.164 0 010-2.8 2.38 2.38 0 01.919-.956 2.676 2.676 0 011.372-.345 2.6 2.6 0 011.606.477z"/>
  </g>
  <path fill="#374b5c" d="M55.751 111.361h11.341v1.406H55.751z"/>
</svg>
