<svg xmlns="http://www.w3.org/2000/svg" viewBox="0 0 190.772 86.891">
  <g fill="#374b5c">
    <path d="M29.679 35.408l.919-.559q.2-1.017-.787-1.018-1.413 0-1.413 2.168a9.87 9.87 0 00.23 1.971 5 5 0 012.5 4.286 4.9 4.9 0 01-1.807 4.057 7.617 7.617 0 01-4.894 1.445 14.179 14.179 0 01-2.66-.263q-1.445.92-1.445 1.38t2.1.459h3.35q7.456 0 7.456 5.354a5.433 5.433 0 01-2.251 4.582q-2.25 1.691-7.012 1.691-8.112 0-8.113-3.514 0-1.906 2.529-2.628l1.97.887a6.75 6.75 0 00-.263 1.807q0 2.824 4.2 2.824a6.9 6.9 0 003.941-.952 2.806 2.806 0 001.38-2.365 1.98 1.98 0 00-.837-1.888 7.69 7.69 0 00-3.334-.477h-3.186a6.331 6.331 0 01-3.81-.887 2.668 2.668 0 01-1.15-2.184 3.035 3.035 0 01.822-2.167 14.918 14.918 0 012.923-2.152 4.749 4.749 0 01-3.81-4.992 4.966 4.966 0 011.774-3.974 8.033 8.033 0 015.32-1.511 7.542 7.542 0 013.646.821 7.513 7.513 0 01-.2-1.609 3.278 3.278 0 01.985-2.66 3.355 3.355 0 012.2-.821 2.879 2.879 0 011.955.64 2.2 2.2 0 01.739 1.757 2.138 2.138 0 01-.592 1.658 2.039 2.039 0 01-1.428.542 2.106 2.106 0 01-1.379-.443 1.628 1.628 0 01-.568-1.265zm-6.964 6.142v1.773a7.89 7.89 0 00.378 2.989 1.22 1.22 0 001.15.787 1.158 1.158 0 001.117-.772 9.277 9.277 0 00.345-3.17v-1.609a10.83 10.83 0 00-.328-3.367 1.132 1.132 0 00-1.1-.8 1.253 1.253 0 00-1.166.837 9.16 9.16 0 00-.396 3.332zM47.907 38.036a2.582 2.582 0 00-2.135 1.576 7.3 7.3 0 00-.919 3.744v8.8h2.332v.591H36.938v-.591h1.806V37.707h-1.806v-.592h7.915v3.153a4.457 4.457 0 011.642-2.578 4.506 4.506 0 012.76-.9 3.617 3.617 0 012.512.871 3.139 3.139 0 01.969 2.463 3.687 3.687 0 01-.722 2.447 2.741 2.741 0 01-2.217.854 2.521 2.521 0 01-2.2-.985 3.035 3.035 0 01-.182-2.726h1.182q.821-1.678-.69-1.678zM58.598 50.898a8.365 8.365 0 01-2.118-6.076 7.467 7.467 0 012.382-5.961 8.9 8.9 0 016.059-2.07q7.455 0 7.16 7.489h-9.262v1.281a11.253 11.253 0 00.82 4.861 2.929 2.929 0 002.859 1.642q3.808 0 4.992-4.073l.591.1a6.787 6.787 0 01-2.251 3.678 7.642 7.642 0 01-4.876 1.314q-4.238-.005-6.356-2.185zm4.254-7.275h3.383v-1.609a13.883 13.883 0 00-.312-3.63 1.23 1.23 0 00-1.248-.969 1.458 1.458 0 00-1.379 1.035 9.984 9.984 0 00-.444 3.564zM78.829 50.898a8.364 8.364 0 01-2.119-6.076 7.467 7.467 0 012.382-5.961 8.9 8.9 0 016.06-2.07q7.455 0 7.16 7.489h-9.261v1.281a11.234 11.234 0 00.821 4.861 2.925 2.925 0 002.856 1.642q3.81 0 4.992-4.073l.592.1a6.788 6.788 0 01-2.249 3.678 7.647 7.647 0 01-4.878 1.314q-4.237-.005-6.356-2.185zm4.254-7.275h3.382v-1.609a13.87 13.87 0 00-.312-3.63 1.23 1.23 0 00-1.248-.969 1.457 1.457 0 00-1.379 1.035 10 10 0 00-.443 3.564zM96.845 37.116h7.916v3.022a5.452 5.452 0 011.609-2.43 4.987 4.987 0 013.285-.92q5.09 0 5.091 5.485v9.887h1.84v.591h-9.3v-.591h1.347V41.484a7.556 7.556 0 00-.264-2.546.956.956 0 00-.952-.574q-1.052 0-1.856 1.38a6.535 6.535 0 00-.8 3.35v9.066h1.411v.591h-9.328v-.591h1.806V37.707h-1.806zM122.576 50.898a8.362 8.362 0 01-2.118-6.076 7.467 7.467 0 012.381-5.961 8.9 8.9 0 016.06-2.07q7.454 0 7.16 7.489h-9.263v1.281a11.251 11.251 0 00.821 4.861 2.928 2.928 0 002.858 1.642q3.809 0 4.992-4.073l.591.1a6.79 6.79 0 01-2.251 3.678 7.642 7.642 0 01-4.877 1.314q-4.233-.005-6.354-2.185zm4.254-7.275h3.383v-1.609a13.874 13.874 0 00-.312-3.63 1.23 1.23 0 00-1.248-.969 1.458 1.458 0 00-1.379 1.035 9.995 9.995 0 00-.443 3.564zM151.497 38.036a2.584 2.584 0 00-2.135 1.576 7.3 7.3 0 00-.919 3.744v8.8h2.331v.591h-10.247v-.591h1.806V37.707h-1.806v-.592h7.915v3.153a4.45 4.45 0 011.643-2.578 4.5 4.5 0 012.758-.9 3.617 3.617 0 012.514.871 3.144 3.144 0 01.969 2.463 3.69 3.69 0 01-.723 2.447 2.739 2.739 0 01-2.216.854 2.526 2.526 0 01-2.2-.985 3.037 3.037 0 01-.18-2.726h1.183q.816-1.678-.693-1.678zM159.416 37.708v-.592h9.525v.592h-1.774l3.58 10.9 3.81-10.9h-2.2v-.592h4.631v.592h-1.643l-6.142 17.7a10.7 10.7 0 01-2.431 4.319 4.69 4.69 0 01-3.285 1.231 4.782 4.782 0 01-3.054-.887 2.769 2.769 0 01-1.116-2.266 2.846 2.846 0 01.722-2.1 2.573 2.573 0 011.905-.722q2.724 0 2.725 2.266a4.4 4.4 0 01-.2 1.182h-1.15a1.783 1.783 0 00-.066 1.247.847.847 0 00.887.493 3.028 3.028 0 002.4-1.33 14.317 14.317 0 002-4.056l.723-2.036h-2.89l-5.616-15.042z"/>
  </g>
  <g fill="#374b5c">
    <path d="M95.499 17.897a.468.468 0 01-.388-.732 12.7 12.7 0 002.183-6.1c.093-.652.191-1.325.352-2.008a16.523 16.523 0 011.505-4.171c-.765-.111-1.522-.246-2.265-.378-1.22-.217-2.481-.441-3.726-.551-2.163-.189-5.189-.041-7.325 1.729a3.533 3.533 0 00-1.346 2.121.474.474 0 01-.525.4.468.468 0 01-.4-.525 4.44 4.44 0 011.677-2.721c2.381-1.975 5.665-2.145 8.006-1.941 1.285.112 2.567.341 3.808.561.865.154 1.748.311 2.634.429a8.038 8.038 0 011.811-1.908 4.439 4.439 0 014.266-.8 1.734 1.734 0 011.151 1.507 1.836 1.836 0 01-1.122 1.515 8.259 8.259 0 01-4.616.776c-.34-.021-.679-.052-1.019-.09a14.946 14.946 0 00-1.6 4.255c-.151.643-.241 1.266-.335 1.926a13.526 13.526 0 01-2.337 6.491.467.467 0 01-.389.215zm5.26-13.759c.159.013.318.026.476.036a7.409 7.409 0 004.106-.663c.19-.1.632-.38.635-.7 0-.263-.293-.51-.588-.638a3.515 3.515 0 00-3.331.689 6.93 6.93 0 00-1.298 1.276z"/>
    <path d="M100.942 18.054a1.284 1.284 0 01-.752-.229 1.567 1.567 0 01-.592-1.273 5.644 5.644 0 01.576-2.35 6.944 6.944 0 00.484-1.5l.005-.037a.948.948 0 00-.258.108 13.939 13.939 0 00-4.447 4.841.46831213.46831213 0 11-.809-.472 14.911 14.911 0 014.779-5.174c.646-.384 1.272-.322 1.555.153a1.065 1.065 0 01.1.724 7.653 7.653 0 01-.543 1.714 4.876 4.876 0 00-.507 1.963.707.707 0 00.193.541c.159.114.483.059.88-.15s.787-.456 1.17-.7l.19-.119q.556-.347 1.094-.724a3.7 3.7 0 01.8-2.846 2.114 2.114 0 012.224-.684 1 1 0 01.6.4 1.053 1.053 0 010 1.079 5.476 5.476 0 01-1.689 1.776l-.219.17q-.315.248-.64.487a1.314 1.314 0 00.477.586 1.655 1.655 0 00.841.171 5.513 5.513 0 003.472-1.187.454.454 0 01.362-.1.467.467 0 01.316.2s1.348 1.525 8.748 1.525h10.6a.4685.4685 0 110 .937h-10.6c-6.141 0-8.392-1.03-9.162-1.593a6.632 6.632 0 01-3.746 1.153 2.576 2.576 0 01-1.31-.3 2.14 2.14 0 01-.771-.843q-.447.3-.9.59l-.189.119c-.4.253-.813.51-1.232.731a2.387 2.387 0 01-1.1.313zm5.6-5.368a1.247 1.247 0 00-.973.457 2.7 2.7 0 00-.6 1.561l.233-.182.224-.174a4.735 4.735 0 001.421-1.448.415.415 0 00.053-.175 1.8 1.8 0 00-.361-.034zM74.797 18.052h-8.069a.4685.4685 0 110-.937h8.069c8.62 0 10.757-1.741 10.777-1.758a.5.5 0 01.369-.111.474.474 0 01.328.2c1.364 1.984 2.619 1.439 2.67 1.414 1.308-.4 1.927-1.885 2.227-3.063.265-1.043.43-2.138.59-3.2.154-1.022.313-2.078.564-3.109a9.074 9.074 0 013.465-5.626.469.469 0 01.518.781 8.388 8.388 0 00-3.073 5.067c-.24.99-.4 2.025-.548 3.027-.164 1.082-.332 2.2-.609 3.288-.516 2.025-1.484 3.305-2.8 3.7-.01.011-1.755.839-3.51-1.385-.986.558-3.896 1.712-10.968 1.712z"/>
  </g>
  <g fill="#374b5c">
    <path d="M46.958 77.155l-.646 2.053-1.1-.347 1.741-5.533 2.015.633a2.176 2.176 0 011.329.935 1.754 1.754 0 01.1 1.434 1.7 1.7 0 01-.909 1.1 2.2 2.2 0 01-1.61.011zm2.308-1.178a.878.878 0 00-.028-.706 1.1 1.1 0 00-.676-.454l-.792-.249-.535 1.7.792.249q.972.305 1.237-.54zM57.824 76.454l-.8 3.307a1.506 1.506 0 00.051 1.064 1.263 1.263 0 001.678.4 1.513 1.513 0 00.531-.924l.8-3.307 1.118.27-.8 3.307a2.812 2.812 0 01-.611 1.251 1.92 1.92 0 01-1 .608 2.6 2.6 0 01-1.233-.018 2.258 2.258 0 01-1.475-1 2.483 2.483 0 01-.177-1.927l.8-3.307zM69.368 84.748l-.958-2.455-.5-.085-.379 2.228-1.142-.194.972-5.719 2.179.371a2.188 2.188 0 011.437.745 1.849 1.849 0 01-.241 2.393 1.8 1.8 0 01-1.141.406l1.037 2.527zm-1.326-3.326l.939.16q.98.167 1.128-.7a.866.866 0 00-.129-.685 1.053 1.053 0 00-.7-.357l-.94-.159zM78.681 81.085l-.156 1.495 2.042.214-.092.882-2.043-.214-.163 1.553 2.288.24-.1.923-3.44-.36.6-5.769 3.442.36-.1.915zM99.407 86.854l-1.158.008-2.626-3.924.03 3.944-1.158.008-.043-5.8 1.158-.009 2.626 3.958-.029-3.976 1.159-.009zM109.545 85.128l-2.318.181-.32 1.2-1.22.095 1.684-5.883 1.319-.1 2.567 5.552-1.221.1zm-.379-.852l-1.042-2.375-.662 2.508zM120.586 79.124l.132.911-1.586.231.7 4.829-1.146.167-.7-4.83-1.578.23-.132-.911zM127.521 77.84l.713 3.326a1.508 1.508 0 00.508.937 1.262 1.262 0 001.687-.362 1.506 1.506 0 00.079-1.063l-.714-3.326 1.125-.241.714 3.326a2.825 2.825 0 01-.008 1.392 1.929 1.929 0 01-.638.982 2.592 2.592 0 01-1.12.518 2.253 2.253 0 01-1.762-.26 2.482 2.482 0 01-.994-1.661l-.714-3.326zM141.514 80.316l-1.927-1.8-.489.14.624 2.172-1.113.32-1.6-5.576 2.124-.61a2.181 2.181 0 011.617.049 1.851 1.851 0 01.821 2.26 1.8 1.8 0 01-.852.86l2.03 1.828zm-2.636-2.422l.916-.264q.955-.275.712-1.119a.868.868 0 00-.413-.561 1.05 1.05 0 00-.787-.018l-.916.264zM148.3 72.983l.508 1.416 1.933-.693.3.834-1.934.693.527 1.47 2.165-.776.315.874-3.256 1.167-1.958-5.461 3.256-1.167.311.866z"/>
  </g>
  <path fill="#374b5c" d="M87.285 65.208h19.257v1.874H87.285zM56.865 16.557a52.364 52.364 0 01-7.888-.837 20.608 20.608 0 01-1.016-4.016c-.083-.456-.165-.911-.256-1.362a11.239 11.239 0 00-2.641-5.792 1.44 1.44 0 00-.985-.488h-.016a1.4 1.4 0 00-1.26 1.038 8.653 8.653 0 00-.309 4.225 10.4 10.4 0 001.382 4.264 6.691 6.691 0 00.7.92 22 22 0 01-3.488-1.652.693.693 0 00-.325-.258 68.4 68.4 0 00-2.223-9.758A3.994 3.994 0 0036.496.123a1.431 1.431 0 00-1.24.023 1.563 1.563 0 00-.7 1.2 13.975 13.975 0 00.989 6.735 27.1 27.1 0 00-6.214-5.062 4.776 4.776 0 00-2.722-.72.7.7 0 00-.629.684c-.028 1.311.735 2.535 2.333 3.74a22.275 22.275 0 007.229 3.257 16.708 16.708 0 001.951 2.009 14.463 14.463 0 00-10.029 1.8.7.7 0 00.058 1.236 8.9 8.9 0 003.889.781 20.2 20.2 0 002.534-.184 25.82 25.82 0 006.433-1.559 22.857 22.857 0 003.443 1.658 16.352 16.352 0 00-4.395 2.284 6.929 6.929 0 00-2.726 4.383 1.186 1.186 0 00.494 1.289 1.022 1.022 0 00.541.151 1.61 1.61 0 00.75-.22 36.258 36.258 0 007.759-6.205l.721-.692c.432.109.863.212 1.293.3.017.005.033.006.051.01a52.327 52.327 0 008.5.939h.03a.70263949.70263949 0 00.028-1.405zM29.157 5.605a4.788 4.788 0 01-1.625-1.829 5.286 5.286 0 011.125.483 21.632 21.632 0 014.557 3.5 17.369 17.369 0 01-4.057-2.15zm14.957.005l.006-.015a10.071 10.071 0 012.206 5.026c.09.442.17.888.252 1.333.164.9.332 1.828.575 2.737a4.651 4.651 0 01-2.084-1.849 9.076 9.076 0 01-1.18-3.7 6.989 6.989 0 01.225-3.527zm-8.169-4.054c.008-.053.016-.1.023-.128.63.254.978 1.079 1.234 1.854a60.077 60.077 0 011.943 8.251l-.044-.035c-2.212-2.591-3.598-6.933-3.156-9.941zm-2.179 12.673a13.381 13.381 0 01-4.126.018 13.356 13.356 0 018.13-.781 29.208 29.208 0 01-4.004.767zm4.4 7.947a5.753 5.753 0 012.126-3.066 14.771 14.771 0 014.037-2.08q.22-.083.436-.161a34.151 34.151 0 01-6.596 5.312zM168.354 13.796a14.459 14.459 0 00-10.029-1.8 16.759 16.759 0 001.951-2.009 22.245 22.245 0 007.228-3.257c1.6-1.206 2.362-2.429 2.333-3.74a.7.7 0 00-.629-.684 4.754 4.754 0 00-2.721.72 27.111 27.111 0 00-6.215 5.062 13.967 13.967 0 00.989-6.733 1.559 1.559 0 00-.7-1.2 1.427 1.427 0 00-1.238-.022 3.992 3.992 0 00-2.043 2.718 68.525 68.525 0 00-2.224 9.757.684.684 0 00-.325.258 21.984 21.984 0 01-3.488 1.652 6.68 6.68 0 00.7-.92 10.4 10.4 0 001.381-4.264 8.665 8.665 0 00-.308-4.225 1.394 1.394 0 00-1.275-1.038 1.439 1.439 0 00-.984.487 11.218 11.218 0 00-2.642 5.793c-.091.453-.174.908-.256 1.364a20.571 20.571 0 01-1.016 4.014 52.366 52.366 0 01-7.888.837.70263949.70263949 0 00.028 1.405h.03a52.463 52.463 0 008.5-.939c.015 0 .03 0 .046-.009.431-.09.862-.194 1.294-.3l.719.69a36.3 36.3 0 007.762 6.208 1.622 1.622 0 00.75.22 1.02 1.02 0 00.54-.151 1.188 1.188 0 00.495-1.287 6.93 6.93 0 00-2.726-4.384 16.381 16.381 0 00-4.394-2.284 22.893 22.893 0 003.433-1.651 25.923 25.923 0 006.444 1.552 20.19 20.19 0 002.534.185 8.891 8.891 0 003.887-.781.7.7 0 00.059-1.236zm-1.2-9.534a5.3 5.3 0 011.124-.483 4.773 4.773 0 01-1.626 1.829 17.352 17.352 0 01-4.055 2.151 21.622 21.622 0 014.562-3.497zm-8.547-.975c.255-.775.6-1.6 1.234-1.854.008.032.016.074.023.127.443 3.007-.944 7.352-3.161 9.946l-.042.033a60.241 60.241 0 011.951-8.251zm-9.365 8.67c.081-.446.162-.893.252-1.336a10.074 10.074 0 012.207-5.026l.006.015a6.989 6.989 0 01.225 3.53 9.065 9.065 0 01-1.179 3.7 4.72 4.72 0 01-2.082 1.845c.237-.9.403-1.821.571-2.728zm8.41 10.221a34.231 34.231 0 01-6.6-5.309c.145.052.292.106.438.161a14.8 14.8 0 014.037 2.08 5.754 5.754 0 012.12 3.072zm4.4-7.949a29.2 29.2 0 01-4-.764 13.369 13.369 0 018.129.783 13.44 13.44 0 01-4.13-.015z"/>
  <circle cx="3.191" cy="3.191" transform="translate(0 41.957)" fill="#374b5c" r="3.191"/>
  <circle cx="3.191" cy="3.191" transform="translate(184.391 41.957)" fill="#374b5c" r="3.191"/>
</svg>
